<svg width="226" height="25" viewBox="0 0 226 25" fill="none" xmlns="http://www.w3.org/2000/svg">
<path d="M225.328 12.2899C223.066 10.2711 216.05 8.53936 199.06 7.13466C182.07 5.72996 158.265 3.94637 131.956 4.57001C105.648 5.19366 78.2352 6.8293 54.2855 9.20447C30.3358 11.5796 11.2947 14.5509 0.334267 17.6234L7.33693 20.2512C15.1917 18.0494 52.2643 13.3226 69.4277 11.6204C86.591 9.91827 106.236 8.74611 125.09 8.29918C143.943 7.85225 160.868 8.15755 173.043 9.16421C185.219 10.1709 214.491 12.4723 214.584 14.4857L225.328 12.2899Z" fill="url(#paint0_linear_43_294)"/>
<defs>
<linearGradient id="paint0_linear_43_294" x1="0.323491" y1="17.3904" x2="225.083" y2="6.99251" gradientUnits="userSpaceOnUse">
<stop offset="0.05" stop-color="#D3C33A"/>
<stop offset="0.531" stop-color="#9A0AA6"/>
<stop offset="1" stop-color="#0469FF"/>
</linearGradient>
</defs>
</svg>
